<?xml version="1.0" encoding="UTF-8"?>
<!DOCTYPE svg PUBLIC "-//W3C//DTD SVG 1.1//EN" "http://www.w3.org/Graphics/SVG/1.1/DTD/svg11.dtd">
<svg xmlns="http://www.w3.org/2000/svg" version="1.1" width="870px" height="870px" style="shape-rendering:geometricPrecision; text-rendering:geometricPrecision; image-rendering:optimizeQuality; fill-rule:evenodd; clip-rule:evenodd" xmlns:xlink="http://www.w3.org/1999/xlink">
<g><path style="opacity:1" fill="#fefefe" d="M -0.5,-0.5 C 289.5,-0.5 579.5,-0.5 869.5,-0.5C 869.5,247.833 869.5,496.167 869.5,744.5C 867.9,735.241 863.567,727.408 856.5,721C 806.027,684.694 755.693,648.194 705.5,611.5C 685.769,646.592 661.436,678.258 632.5,706.5C 683.67,744.161 735.003,781.661 786.5,819C 799.459,824.926 812.459,824.926 825.5,819C 848.894,807.358 863.561,788.858 869.5,763.5C 869.5,798.833 869.5,834.167 869.5,869.5C 579.5,869.5 289.5,869.5 -0.5,869.5C -0.5,725.5 -0.5,581.5 -0.5,437.5C 7.55757,566.502 65.2242,666.335 172.5,737C 279.953,800.724 391.953,809.724 508.5,764C 615.31,716.848 685.81,637.348 720,525.5C 724.451,508.995 727.951,492.328 730.5,475.5C 731.889,470.731 732.556,465.731 732.5,460.5C 741.008,330.073 695.675,222.906 596.5,139C 517.879,78.2533 428.879,52.0866 329.5,60.5C 324.269,60.4443 319.269,61.111 314.5,62.5C 204.31,80.4856 118.476,135.819 57,228.5C 23.7097,281.537 4.54302,339.204 -0.5,401.5C -0.5,267.5 -0.5,133.5 -0.5,-0.5 Z"/></g>
<g><path style="opacity:1" fill="#030303" d="M 732.5,460.5 C 731.111,465.269 730.444,470.269 730.5,475.5C 727.951,492.328 724.451,508.995 720,525.5C 685.81,637.348 615.31,716.848 508.5,764C 391.953,809.724 279.953,800.724 172.5,737C 65.2242,666.335 7.55757,566.502 -0.5,437.5C -0.5,425.5 -0.5,413.5 -0.5,401.5C 4.54302,339.204 23.7097,281.537 57,228.5C 118.476,135.819 204.31,80.4856 314.5,62.5C 319.731,62.5557 324.731,61.889 329.5,60.5C 428.879,52.0866 517.879,78.2533 596.5,139C 695.675,222.906 741.008,330.073 732.5,460.5 Z"/></g>
<g><path style="opacity:1" fill="#484848" d="M 329.5,60.5 C 324.731,61.889 319.731,62.5557 314.5,62.5C 319.269,61.111 324.269,60.4443 329.5,60.5 Z"/></g>
<g><path style="opacity:1" fill="#fefefe" d="M 347.5,130.5 C 459.662,127.166 548.162,170.833 613,261.5C 638.324,299.826 653.824,341.826 659.5,387.5C 659.527,393.051 660.194,398.384 661.5,403.5C 665.992,506.993 628.659,591.826 549.5,658C 475.391,713.187 392.725,731.854 301.5,714C 193.485,685.989 121.319,619.156 85,513.5C 54.871,406.868 75.5376,311.535 147,227.5C 189.24,181.787 240.74,151.621 301.5,137C 312.038,134.521 322.705,133.021 333.5,132.5C 338.414,132.638 343.081,131.972 347.5,130.5 Z"/></g>
<g><path style="opacity:1" fill="#bababa" d="M 347.5,130.5 C 343.081,131.972 338.414,132.638 333.5,132.5C 337.919,131.028 342.586,130.362 347.5,130.5 Z"/></g>
<g><path style="opacity:1" fill="#030303" d="M 323.5,578.5 C 323.5,541.833 323.5,505.167 323.5,468.5C 286.167,468.5 248.833,468.5 211.5,468.5C 184.978,460.781 173.478,443.114 177,415.5C 181.572,399.926 191.405,389.093 206.5,383C 245.499,382.5 284.499,382.333 323.5,382.5C 323.03,343.127 323.53,303.793 325,264.5C 335.007,241.246 352.507,231.746 377.5,236C 393.504,240.671 404.337,250.837 410,266.5C 410.5,305.165 410.667,343.832 410.5,382.5C 448.835,382.333 487.168,382.5 525.5,383C 545.136,389.448 555.802,402.948 557.5,423.5C 557.032,448.805 544.366,463.971 519.5,469C 483.168,469.5 446.835,469.667 410.5,469.5C 410.667,507.168 410.5,544.835 410,582.5C 401.413,607.389 383.913,618.555 357.5,616C 338.628,610.296 327.294,597.796 323.5,578.5 Z"/></g>
<g><path style="opacity:1" fill="#a0a0a0" d="M 659.5,387.5 C 660.957,392.598 661.624,397.931 661.5,403.5C 660.194,398.384 659.527,393.051 659.5,387.5 Z"/></g>
<g><path style="opacity:1" fill="#b2b2b2" d="M 732.5,460.5 C 732.556,465.731 731.889,470.731 730.5,475.5C 730.444,470.269 731.111,465.269 732.5,460.5 Z"/></g>
<g><path style="opacity:1" fill="#ababab" d="M 211.5,468.5 C 248.833,468.5 286.167,468.5 323.5,468.5C 323.5,505.167 323.5,541.833 323.5,578.5C 322.502,542.337 322.168,506.004 322.5,469.5C 285.33,469.832 248.33,469.498 211.5,468.5 Z"/></g>
<g><path style="opacity:1" fill="#030303" d="M 869.5,744.5 C 869.5,750.833 869.5,757.167 869.5,763.5C 863.561,788.858 848.894,807.358 825.5,819C 812.459,824.926 799.459,824.926 786.5,819C 735.003,781.661 683.67,744.161 632.5,706.5C 661.436,678.258 685.769,646.592 705.5,611.5C 755.693,648.194 806.027,684.694 856.5,721C 863.567,727.408 867.9,735.241 869.5,744.5 Z"/></g>
</svg>
